<svg width="44" height="50" viewBox="0 0 44 50" fill="none" xmlns="http://www.w3.org/2000/svg">
<path d="M36.8704 43.5123H6.93518C5.86728 43.5123 5 42.6451 5 41.5772V5.93518C5 4.86728 5.86728 4 6.93518 4H31.1142C31.6327 4 32.1173 4.20062 32.4815 4.5679L38.2346 10.321C38.5988 10.6852 38.8025 11.1728 38.8025 11.6883V41.5772C38.8025 42.6451 37.9352 43.5123 36.8673 43.5123H36.8704ZM7.43827 41.0772H36.3673V11.8981L30.9074 6.43827H7.43827V41.0772Z" fill="#002854"/>
<path d="M30.6666 18.4938C30.3426 15.5401 27.8302 13.2315 24.7901 13.2315C22.6018 13.2315 20.6265 14.4321 19.6049 16.3055C19.3024 16.2531 18.9907 16.2284 18.6759 16.2284C16.4012 16.2284 14.395 17.6481 13.5987 19.713C11.0802 19.8426 9.06787 21.9321 9.06787 24.4846C9.06787 27.037 11.2098 29.2623 13.8456 29.2623H15.7191V35.2191C15.7191 36.2068 16.5216 37.0123 17.5123 37.0123H25.9074C26.895 37.0123 27.7006 36.2099 27.7006 35.2191V29.2623H29.574C32.574 29.2623 35.0123 26.821 35.0123 23.8241C35.0123 21.2099 33.1419 19.0062 30.6666 18.4969V18.4938ZM25.5494 34.858H17.8703V25.3858H25.5494V34.858ZM29.571 27.1111H27.6975V25.0278C27.6975 24.0401 26.895 23.2346 25.9043 23.2346H17.5092C16.5216 23.2346 15.716 24.037 15.716 25.0278V27.1111H13.8426C12.395 27.1111 11.216 25.9321 11.216 24.4846C11.216 23.037 12.395 21.858 13.8426 21.858C13.9753 21.858 14.1049 21.8673 14.2284 21.8858L15.2438 22.0401L15.4413 21.0309C15.7438 19.4938 17.1018 18.3796 18.6697 18.3796C19.071 18.3796 19.4598 18.4506 19.821 18.5895L20.8642 18.9876L21.2253 17.9321C21.7438 16.4074 23.1728 15.3858 24.7839 15.3858C26.858 15.3858 28.5463 17.0741 28.5463 19.1481C28.5463 19.2284 28.5463 19.3117 28.537 19.392L28.4629 20.5247L29.5987 20.537C31.395 20.5555 32.8549 22.0309 32.8549 23.8241C32.8549 25.6173 31.3796 27.1142 29.5648 27.1142L29.571 27.1111ZM24.466 29.0463H18.9506V27.3272H24.466V29.0463ZM24.466 32.9197H18.9506V31.2006H24.466V32.9197Z" fill="url(#paint0_linear_114_2920)"/>
<defs>
<linearGradient id="paint0_linear_114_2920" x1="13.6882" y1="33.9259" x2="30.8086" y2="16.8086" gradientUnits="userSpaceOnUse">
<stop stop-color="#00A0FB"/>
<stop offset="1" stop-color="#00EB86"/>
</linearGradient>
</defs>
</svg>
